<svg width="763" height="212" xmlns="http://www.w3.org/2000/svg" xml:space="preserve"
  enable-background="new 0 0 1024 1024" version="1.1">
  <g>
   <title>Layer 1</title>
   <rect id="svg_1" fill="transparent" height="212" width="763" y="0" x="0"/>
   <path id="svg_4" d="m496.94956,156.30595c-19.47062,9.34797 -41.54895,1.06379 -47.59162,-17.55426c-3.81463,-11.75329 -0.09582,-25.01623 9.2833,-33.10858c9.82562,-8.47766 25.3916,-10.28552 36.99139,-4.44305c10.92697,5.50366 16.79575,14.37793 17.45578,26.47809c0.69153,12.67639 -5.20081,21.93493 -16.13885,28.6278m-32.84653,-32.95514c-0.22827,3.12055 -0.9202,6.29108 -0.58994,9.35132c0.72586,6.72663 4.74689,11.16986 11.01389,13.48432c6.0842,2.24695 11.8569,1.34564 16.87658,-2.71686c6.14286,-4.97162 8.17167,-13.06598 5.55942,-20.78497c-2.25113,-6.65192 -7.92209,-11.07831 -14.78189,-11.53791c-8.41739,-0.56396 -13.62143,2.75781 -18.07806,12.2041z" fill="#ffffff" stroke="#ffffff"/>
   <path id="svg_5" d="m310.6527,154.17191c-0.0001,1.62567 -0.0001,2.78064 -0.0001,4.27063c-4.62112,0 -9.03033,0 -13.67596,0c-0.13864,-1.72376 -0.26865,-3.34015 -0.36063,-4.4837c-4.80795,1.94061 -9.57135,4.8554 -14.6755,5.69244c-7.79953,1.27924 -15.58399,0.4986 -21.76999,-5.75677c-5.16705,-5.22504 -6.25351,-11.40204 -4.04486,-17.94477c2.25796,-6.68872 7.6055,-10.67584 14.48834,-11.45862c8.06369,-0.91705 16.23349,-0.90112 24.38922,-1.29138c1.07922,-7.05902 -0.58853,-9.78399 -7.42615,-11.94665c-7.37384,-2.33222 -14.96319,-0.79987 -23.55612,4.79516c-1.99359,-3.40771 -3.98224,-6.80694 -5.9302,-10.13672c10.29428,-8.80377 29.8078,-10.87591 41.16644,-4.46167c7.83032,4.42182 11.2901,11.46222 11.35409,20.26374c0.07752,10.66211 0.03312,21.32507 0.04142,32.45831m-40.05106,-9.42419c3.6499,5.01434 9.92996,6.37671 16.92816,3.67224c6.32917,-2.44587 8.8356,-7.14893 7.75824,-14.96961c-5.89831,0 -11.87887,-0.39215 -17.7839,0.10779c-6.18753,0.52387 -8.32138,4.1012 -6.9025,11.18958z" fill="#ffffff" stroke="#ffffff"/>
   <path id="svg_6" d="m322.0302,108.23183c-0.00101,-3.27057 -0.00101,-6.05695 -0.00101,-9.04956c5.12928,0 9.90103,0 15.38486,0c0,7.37103 0.0076,14.62622 -0.00333,21.88141c-0.00525,3.49737 -0.10202,6.99542 -0.0589,10.492c0.12101,9.81256 5.01728,15.02387 14.0112,14.98694c8.36982,-0.03436 14.34552,-6.27038 14.40119,-15.13977c0.05325,-8.49347 0.01382,-16.98743 0.01501,-25.4812c0.00028,-2.14532 0,-4.29065 0,-6.70349c5.20407,0 9.96259,0 14.96921,0c0,19.51782 0,38.9508 0,58.7959c-4.51337,0 -9.0719,0 -13.91104,0c0,-2.11164 0,-4.23755 0,-7.04474c-2.40924,2.05682 -4.18192,3.92956 -6.2807,5.30456c-15.29245,10.01862 -36.87625,-0.38403 -38.11337,-18.59381c-0.65354,-9.61957 -0.30707,-19.30713 -0.41312,-29.44824z" fill="#ffffff" stroke="#ffffff"/>
   <path id="svg_7" d="m645.49443,152.93511c-8.19653,7.44336 -17.48285,8.9696 -27.19519,5.38201c-9.69879,-3.58239 -14.61688,-11.59204 -15.07818,-21.61096c-0.56458,-12.26227 -0.13452,-24.57037 -0.13452,-37.25622c5.01525,0 9.73168,0 14.98687,0c0,8.53528 -0.0086,17.16302 0.00543,25.79077c0.00403,2.49542 -0.02588,4.99695 0.12989,7.48505c0.56524,9.02496 5.31866,13.70135 13.7724,13.65094c8.3432,-0.04975 14.29022,-5.9184 14.42639,-14.56672c0.14416,-9.15362 0.02948,-18.31134 0.02789,-27.46722c-0.0003,-1.63526 -0.00006,-3.27051 -0.00006,-5.09656c5.16492,0 9.94226,0 14.98419,0c0,19.68372 0,39.24579 0,59.09119c-4.39245,0 -8.65521,0 -13.6203,0c0,-1.9242 0.04169,-3.68866 -0.08825,-5.44037c-0.00922,-0.12464 -1.27839,-0.15582 -2.21656,0.03809z" fill="#ff7f00"/>
   <path id="svg_8" d="m693.77501,131.63723c0.06854,-1.53705 0.31018,-3.08197 -0.33874,-3.99139c-5.40113,-7.56824 -10.97364,-15.01392 -16.4748,-22.51093c-0.93707,-1.27698 -1.78094,-2.62231 -3.06628,-4.52636c5.64447,0 10.59405,-0.15516 15.51996,0.11712c1.12842,0.06232 2.44128,1.40613 3.21503,2.48572c3.8446,5.36444 7.53729,10.83783 11.617,16.75671c3.85254,-5.37188 7.60541,-10.22424 10.91003,-15.36474c1.79657,-2.79462 3.58661,-4.38666 7.15534,-4.05225c3.91418,0.36688 7.88934,0.08356 12.03821,0.08356c-7.10621,9.84363 -13.97162,19.35364 -20.91169,28.9671c7.52545,10.05084 14.86054,19.84741 22.86249,30.53467c-5.95776,0 -11.14746,0.13452 -16.31756,-0.12354c-0.93348,-0.04663 -1.9057,-1.61816 -2.65699,-2.63562c-4.33038,-5.86462 -8.59967,-11.77429 -13.19317,-18.08563c-4.4209,6.17328 -8.41077,12.07953 -12.80805,17.66486c-1.19616,1.5194 -3.55468,2.74169 -5.4945,2.93225c-4.39307,0.43152 -8.85761,0.13574 -13.78974,0.13574c7.42896,-9.71246 14.46137,-18.9065 21.73346,-28.38727z" fill="#ff7f00"/>
   <path id="svg_9" d="m536.74559,76.06264c8.0108,-2.07751 15.4151,-2.1557 22.65723,2.30286c-1.59888,3.69726 -3.07892,7.11969 -4.53699,10.49127c-13.5874,-2.81976 -17.68408,0.05585 -16.48242,12.26306c2.47241,0 5.04669,-0.00006 7.62097,-0.00006c2.47003,0 4.94006,0.00006 7.50946,0.00006c0,4.35327 0,8.43256 0,12.95368c-5.2489,0 -10.17828,0 -15.51599,0c0,15.52752 0,30.61279 0,46.09796c-5.13477,0 -9.85291,0 -15.03912,0c0,-15.11859 0,-30.3241 0,-45.96228c-3.19263,0 -5.93732,0 -9.14368,0c0,-4.47223 0,-8.52729 0,-13.04957c2.72968,0 5.64429,0 9.13025,0c-0.28046,-11.11944 2.0357,-20.64422 13.80029,-25.09698z" fill="#ff7f00"/>
   <path id="svg_10" d="m419.10106,160.17147c-11.38684,-2.2116 -17.32275,-9.35724 -17.41568,-20.68139c-0.07229,-8.81244 -0.01443,-17.62592 -0.01443,-26.89588c-3.23947,-0.16681 -6.29749,-0.32428 -9.67389,-0.49817c0,-4.09887 0,-8.00348 0,-12.43811c2.96914,0 6.03756,0 9.47964,0c0,-5.5896 0,-10.67297 0,-16.01098c5.12448,0 9.87335,0 15.16541,0c0,5.19134 0,10.26593 0,15.77502c5.59308,0 10.66806,0 15.9346,0c0,4.38965 0,8.32898 0,12.71936c-5.15503,0 -10.22638,0 -15.70737,0c0,9.87116 -0.27942,19.31409 0.11438,28.72895c0.20609,4.92651 4.8523,7.54602 9.9213,6.3161c1.72537,-0.41864 3.36721,-1.18122 5.21045,-1.84546c1.23785,3.97265 2.40277,7.71124 3.87991,12.4519c-5.81732,0.85858 -11.1438,1.64465 -16.89432,2.37866z" fill="#ffffff" stroke="#ffffff"/>
   <path id="svg_11" d="m567.60149,103.96255c0.00049,-10.14069 0.00049,-19.78137 0.00049,-29.69348c4.98754,0 9.7077,0 15.02587,0c0,4.28522 0.00281,8.39239 -0.00054,12.49957c-0.01423,17.49396 -0.05585,34.98798 -0.03327,52.48187c0.00958,7.43769 1.96247,9.06086 9.9715,7.97119c0,4.07123 0,8.08405 0,12.94977c-4.37433,-0.19201 -9.05609,0.15637 -13.49652,-0.71923c-7.04883,-1.39008 -11.35895,-7.33655 -11.42694,-15.00373c-0.11823,-13.3277 -0.03809,-26.65722 -0.04059,-40.48596z" fill="#ff7f00"/>
   <path id="svg_2" d="m116.30463,124.43014c-14.62097,11.3237 -28.96093,22.42761 -43.33288,33.48987c-12.88043,9.91421 -31.13303,7.4787 -40.88532,-5.40995c-9.36813,-12.38083 -6.12231,-30.52478 6.65137,-40.28094c33.71466,-25.75031 67.38696,-51.56024 100.80127,-77.69782c18.04852,-14.11804 42.49353,-7.17434 47.62549,14.33823c2.73572,11.46805 -0.38165,21.51025 -9.96216,28.89752c-20.15778,15.54303 -40.41455,30.95777 -60.89777,46.66309z" fill="#ffffff" stroke="#ffffff"/>
   <path id="svg_3" d="m146.10322,163.83056c-17.04663,-5.35175 -22.70111,-22.88468 -11.74958,-35.60675c3.81959,-4.43707 8.7425,-6.99866 14.80225,-6.99698c13.48694,0.00369 26.97577,-0.19424 40.46015,-0.02252c11.52081,0.1467 20.35644,9.80755 20.19116,21.61932c-0.15997,11.42722 -9.27039,21.00876 -20.34046,21.09076c-14.31756,0.10611 -28.63671,-0.00421 -43.36352,-0.08383z" fill="#ff7f00"/>
  </g>
 
 </svg>