<svg width="241" height="241" xmlns="http://www.w3.org/2000/svg" version="1.1" enable-background="new 0 0 1024 1024" xml:space="preserve">
  <g>
   <title>Layer 1</title>
   <rect stroke-width="0" rx="100" stroke="null" x="0" y="0" width="241" height="241" fill="black" id="svg_1"/>
   <g id="svg_4">
    <path fill="#ffffff" d="m118.55069,149.33715c-14.62097,11.3237 -28.96093,22.42761 -43.33288,33.48987c-12.88043,9.91421 -31.13303,7.4787 -40.88532,-5.40995c-9.36813,-12.38083 -6.12231,-30.52478 6.65137,-40.28094c33.71466,-25.75031 67.38696,-51.56024 100.80127,-77.69782c18.04852,-14.11804 42.49353,-7.17434 47.62549,14.33823c2.73572,11.46805 -0.38165,21.51025 -9.96216,28.89752c-20.15778,15.54303 -40.41455,30.95777 -60.89777,46.66309z" id="svg_2"/>
    <path fill="#ff7f00" d="m148.34928,188.73757c-17.04663,-5.35175 -22.70111,-22.88468 -11.74958,-35.60675c3.81959,-4.43707 8.7425,-6.99866 14.80225,-6.99698c13.48694,0.00369 26.97577,-0.19424 40.46015,-0.02252c11.52081,0.1467 20.35644,9.80755 20.19116,21.61932c-0.15997,11.42722 -9.27039,21.00876 -20.34046,21.09076c-14.31756,0.10611 -28.63671,-0.00421 -43.36352,-0.08383z" id="svg_3"/>
   </g>
  </g>
 
 </svg>